<?xml version="1.0" standalone="no"?>
<!DOCTYPE svg PUBLIC "-//W3C//DTD SVG 20010904//EN"
 "http://www.w3.org/TR/2001/REC-SVG-20010904/DTD/svg10.dtd">
<svg version="1.0" xmlns="http://www.w3.org/2000/svg"
 width="500.000000pt" height="500.000000pt" viewBox="0 0 500.000000 500.000000"
 preserveAspectRatio="xMidYMid meet">

<g transform="translate(0.000000,500.000000) scale(0.100000,-0.100000)"
fill="#0284c7" stroke="none">
<path d="M1094 3326 c-40 -40 -41 -52 -23 -280 11 -151 22 -182 72 -220 26
-19 41 -21 200 -21 259 0 261 1 282 277 22 282 26 278 -286 278 l-211 0 -34
-34z"/>
<path fill="#0c4a6e" d="M3510 2715 l0 -235 50 0 50 0 0 103 c0 112 10 140 57 158 72 27 103
-23 103 -166 l0 -95 45 0 45 0 0 118 c0 129 -12 169 -62 206 -35 25 -110 26
-155 3 l-33 -18 0 81 0 80 -50 0 -50 0 0 -235z"/>
<path fill="#0c4a6e" d="M2403 2924 c-23 -5 -23 -5 -23 -225 l0 -219 50 0 50 0 0 65 0 65 78
0 c63 0 88 5 122 23 109 57 107 210 -2 265 -37 18 -66 24 -149 27 -57 2 -114
1 -126 -1z m206 -85 c17 -6 36 -19 41 -29 17 -31 11 -78 -11 -98 -22 -21 -97
-35 -135 -26 -23 6 -24 10 -24 85 l0 79 49 0 c26 0 62 -5 80 -11z"/>
<path fill="#0c4a6e" d="M3248 2858 c-3 -39 -6 -43 -30 -46 -25 -3 -28 -8 -28 -38 0 -31 2
-34 30 -34 l30 0 0 -90 c0 -100 11 -135 51 -156 32 -16 102 -19 129 -4 16 9
17 15 8 40 -8 25 -14 29 -33 24 -13 -3 -33 -1 -44 6 -19 10 -21 20 -21 95 l0
85 45 0 c45 0 45 0 45 35 0 35 0 35 -45 35 l-45 0 0 45 0 45 -44 0 -45 0 -3
-42z"/>
<path fill="#0c4a6e" d="M2913 2820 c-23 -5 -51 -14 -62 -20 -20 -10 -20 -12 -4 -44 15 -32
17 -33 42 -20 58 30 151 8 151 -37 0 -16 -7 -19 -54 -19 -114 0 -166 -30 -166
-95 0 -47 14 -71 52 -91 41 -21 129 -15 158 11 19 18 20 18 20 -3 0 -19 6 -22
46 -22 l46 0 -3 128 c-4 140 -14 169 -67 196 -37 19 -108 26 -159 16z m127
-219 c0 -20 -8 -35 -22 -45 -44 -31 -108 -13 -108 30 0 29 26 42 88 43 40 1
42 0 42 -28z"/>
<path fill="#0c4a6e" d="M4060 2819 c-99 -30 -154 -134 -119 -226 14 -38 57 -83 96 -99 76
-33 189 -5 233 56 24 34 37 110 26 154 -8 32 -51 83 -85 100 -37 20 -110 27
-151 15z m113 -89 c54 -42 42 -140 -19 -166 -42 -18 -78 -10 -104 23 -23 29
-27 99 -7 124 32 42 90 50 130 19z"/>
<path fill="#0c4a6e" d="M4443 2818 c-54 -12 -93 -56 -93 -104 0 -52 36 -80 120 -94 75 -13
101 -30 80 -55 -16 -19 -99 -20 -144 -1 -33 14 -33 13 -49 -19 l-16 -33 32
-14 c18 -7 68 -13 114 -13 90 0 125 16 151 69 29 59 -15 108 -117 129 -68 13
-96 36 -73 59 14 14 70 16 123 4 32 -7 36 -5 48 20 15 34 8 41 -58 54 -61 11
-61 11 -118 -2z"/>
<path fill="#0c4a6e" d="M583 2793 c-36 -7 -71 -51 -78 -96 -4 -23 -5 -124 -3 -224 4 -265 3
-263 278 -245 276 18 280 22 280 277 0 151 -2 174 -20 202 -33 54 -55 62 -201
73 -74 5 -156 11 -184 13 -27 2 -60 2 -72 0z"/>
<path fill="#0c4a6e" d="M1905 2784 c-253 -20 -260 -27 -260 -279 0 -245 10 -258 228 -275 70
-5 157 -10 193 -10 128 0 134 13 134 292 0 181 -2 217 -16 237 -18 25 -72 52
-101 50 -10 -1 -90 -8 -178 -15z"/>
<path d="M3710 2194 l0 -55 -26 20 c-15 12 -40 21 -56 21 -41 0 -88 -48 -88
-90 0 -42 47 -90 88 -90 16 0 41 9 55 20 l26 20 4 -22 c2 -13 5 34 6 105 0 70
-1 127 -4 127 -3 0 -5 -25 -5 -56z m-47 -36 c52 -27 62 -79 22 -122 -57 -62
-152 1 -124 83 15 43 61 61 102 39z"/>
<path d="M3081 2224 c-25 -18 -51 -71 -51 -105 0 -35 31 -89 61 -104 54 -29
135 -10 160 36 16 30 5 34 -14 5 -35 -53 -136 -55 -172 -3 -19 27 -19 106 0
133 35 52 127 55 165 7 11 -14 23 -23 26 -20 4 3 -7 20 -24 37 -26 25 -38 30
-79 30 -29 0 -58 -7 -72 -16z"/>
<path d="M1186 2190 c-37 -12 -66 -38 -81 -75 -7 -16 -19 -112 -26 -213 -12
-178 -12 -184 8 -210 36 -48 53 -52 273 -52 302 0 299 -3 277 282 -21 269 -24
272 -262 275 -88 1 -173 -2 -189 -7z"/>
<path d="M3345 2158 c-22 -20 -28 -32 -28 -68 0 -35 6 -48 27 -67 61 -52 146
-14 146 65 0 53 -25 82 -76 89 -33 4 -45 1 -69 -19z m110 -13 c16 -15 25 -36
25 -55 0 -38 -39 -80 -73 -80 -42 0 -77 36 -77 80 0 71 76 104 125 55z"/>
<path d="M3814 2157 c-21 -19 -27 -32 -27 -67 0 -75 64 -111 133 -75 17 9 30
20 30 26 0 6 -12 1 -26 -10 -15 -12 -37 -21 -49 -21 -12 0 -34 9 -49 21 -27
21 -36 59 -13 59 8 0 8 3 -2 9 -35 22 30 77 79 66 27 -6 63 -49 59 -71 0 -3 2
-8 5 -11 3 -4 6 4 6 16 0 12 -13 36 -29 52 -36 36 -79 38 -117 6z"/>
<path d="M3840 2094 c38 -8 90 -9 90 -2 0 4 -24 7 -52 7 -29 -1 -46 -3 -38 -5z"/>
</g>
</svg>
